<?xml version="1.0" encoding="UTF-8"?>
<svg id="Layer_1" xmlns="http://www.w3.org/2000/svg" version="1.1" viewBox="0 0 1190.6 322.9">
  <!-- Generator: Adobe Illustrator 29.0.1, SVG Export Plug-In . SVG Version: 2.1.0 Build 192)  -->
  <defs>
    <style>
      .st0 {
        fill: #f15a22;
      }
    </style>
  </defs>
  <path class="st0" d="M751.7,251.1c2.4.8,4.7,2,6.7,3.6,2,1.6,3.7,3.5,5.2,5.7,1.5,2.3,2.6,4.8,3.4,7.4.8,2.8,1.2,5.8,1.2,8.8,0,3.7-.6,7.3-1.8,10.8-1.1,3.1-2.9,6-5.1,8.4-2.2,2.3-4.9,4.1-7.8,5.3-3.1,1.3-6.5,1.9-9.8,1.9-6.4,0-11.5-2.2-15.2-6.6h-.2v26.5h-13.7v-72.1h13.8v5.9h.2c3.8-4.5,9-6.8,15.6-6.8,2.6,0,5.3.4,7.8,1.3M750.5,286.7c2.5-2.8,3.8-6.4,3.7-10.1,0-4.3-1.2-7.8-3.8-10.4-2.4-2.6-5.8-4.1-9.4-4-1.9,0-3.7.4-5.4,1.1-1.6.7-3,1.7-4.2,3-1.2,1.3-2.1,2.9-2.8,4.6-.7,1.8-1,3.8-1,5.7,0,2.6.6,5.1,1.8,7.3,1.1,2.1,2.8,3.8,4.8,5,2.1,1.2,4.4,1.8,6.8,1.7,3.6.1,7-1.3,9.5-3.9M829.7,250.7v51.4h-13.1v-6.2h-.3c-3.7,4.7-8.8,7.1-15.3,7.1-3.4,0-6.7-.6-9.8-1.9-2.9-1.2-5.6-3-7.8-5.3-2.3-2.4-4-5.3-5.1-8.4-2.5-7-2.5-14.6,0-21.5,1.1-3.1,2.8-6,5.1-8.5,4.5-4.8,10.7-7.5,17.3-7.5,5.8-.2,11.4,2.3,15.2,6.7h.2v-5.8h13.8ZM812.8,286.7c2.6-2.7,3.9-6.4,3.8-10.1.1-3.8-1.2-7.4-3.7-10.3-2.3-2.7-5.7-4.2-9.3-4.1-3.6,0-7,1.4-9.4,4-2.5,2.6-3.8,6.1-3.8,10.4-.1,3.7,1.2,7.3,3.6,10.1,2.5,2.6,5.9,4,9.5,3.9,3.5,0,6.9-1.3,9.2-3.9M891.1,250.7h-14.2l-11.8,31.8h-.2l-12.6-31.8h-14.3l20.5,48.2-9.1,24h14.1l27.7-72.1h0ZM975.7,255.4c-3.2-3.7-7.6-5.5-13.4-5.5-3.5,0-6.9.7-10.1,2.1-3,1.4-5.7,3.5-7.7,6.1h-.2c-3-5.5-8.1-8.3-15.2-8.3-2.9,0-5.7.7-8.3,2-2.7,1.4-5.1,3.3-7,5.7h-.2v-6.8h-13.8v51.4h13.8v-25.7c0-2.6.4-5.3,1.4-7.7.8-2,2.1-3.6,3.9-4.9,1.6-1.1,3.6-1.6,5.5-1.6,6.1,0,9.1,4.4,9.1,13.4v26.5h13.8v-25.7c0-2.6.4-5.3,1.4-7.7.8-1.9,2.1-3.6,3.8-4.9,1.6-1.1,3.4-1.6,5.3-1.6,6,0,9,4.4,9,13.4v26.5h13.8v-29.9c0-7.6-1.6-13.2-4.8-16.9M1041.2,280.9h-36c.7,2.9,2.4,5.4,4.7,7.2,2.4,1.8,5.4,2.7,8.4,2.7,4.8.1,9.3-2,12.3-5.8l8.9,8.3c-2.5,3-5.6,5.5-9.1,7.1-4.1,1.8-8.6,2.7-13,2.6-4.7,0-9.3-1-13.5-3.3-4-2.2-7.3-5.4-9.5-9.4-2.4-4.3-3.6-9.1-3.5-14,0-3.7.7-7.3,2-10.7,1.2-3.1,3-6,5.3-8.4,2.3-2.3,5-4.2,8.1-5.4,3.2-1.3,6.7-2,10.1-1.9,4.6,0,9.2,1.1,13.2,3.4,3.8,2.2,6.9,5.4,8.9,9.3,2.1,4.1,3.2,8.8,3.1,13.4,0,1.7,0,3.3-.4,4.9M1009.6,264.3c-2.1,1.7-3.6,4-4.2,6.7h22.6c-.6-2.6-1.9-4.9-3.9-6.6-2-1.6-4.6-2.5-7.2-2.4-2.6,0-5.2.7-7.3,2.3M1090.6,251.1c-5.4-1.8-11.4-1.6-16.6.7-2.9,1.3-5.4,3.2-7.4,5.6h-.2v-6.6h-13.8v51.4h13.8v-25.8c0-4.5,1.1-7.9,3.2-10.4,2.1-2.4,5.3-3.8,8.5-3.6,3.3,0,5.8,1,7.4,2.9,1.6,1.9,2.4,5.3,2.4,10v27.1h13.8v-30.5c0-3.4-.4-6.8-1.3-10.1-.7-2.5-2-4.9-3.9-6.8-1.7-1.7-3.7-2.9-5.9-3.7M1120,298.6c2.7,2.9,6.3,4.4,10.8,4.4,2.6,0,5.2-.2,7.7-.8,2.1-.6,4-1.4,5.9-2.4l-3.6-11c-2,1.1-4.2,1.7-6.5,1.8-1.4.1-2.7-.5-3.5-1.6-.8-1.5-1.2-3.3-1.1-5v-21.8h14v-11.4h-14v-18.3l-13.8,1.5v16.8h-6.1v11.4h6.1v23.7c0,5.6,1.3,9.9,3.9,12.8M1149.8,295.5c5.7,5,13.2,7.7,20.8,7.5,6.5,0,11.4-1.5,14.8-4.4,3.4-2.9,5.3-7.1,5.1-11.6,0-1.2,0-2.3-.3-3.4-.7-3.5-2.9-6.5-6-8.2-1.9-1.2-5.7-2.9-11.4-5-2.1-.7-4-1.6-5.9-2.8-1-.5-1.7-1.6-1.8-2.8,0-1.2.5-2.2,1.5-2.9,1-.7,2.3-1,3.5-1,2.1,0,4.2.5,6.2,1.4,2.3,1,4.3,2.4,6.1,4.1l6.7-10.1c-2.7-2.1-5.7-3.8-8.9-4.9-3.2-1.1-6.5-1.6-9.9-1.5-3.2,0-6.5.6-9.4,1.9-2.7,1.2-5,3-6.6,5.4-1.6,2.4-2.5,5.2-2.4,8.1,0,1.5.2,3,.6,4.5.3,1.3.9,2.5,1.7,3.6.7,1,1.5,2,2.5,2.9,1,.9,2.1,1.7,3.3,2.3,1.2.7,2.4,1.3,3.7,1.8,1.2.5,2.6,1,4.1,1.5,2.4.8,4.3,1.5,5.5,2,1,.4,2,1,2.8,1.7.6.5,1,1.3,1,2.1,0,1.3-.6,2.4-1.7,3.1-1.4.9-3,1.3-4.6,1.2-5.2,0-9.9-2-14.2-6l-6.7,9.5M307.4,15.5v188.5c0,31.7-25.7,57.4-57.4,57.4h-96.3v52.9c0,4.8-3.9,8.6-8.6,8.6H57.4C25.7,322.9,0,297.2,0,265.5V72.7C0,41,25.7,15.4,57.4,15.4h250ZM489.8,58.9c-7.1-2.4-14.6-3.6-22.1-3.6-18.5,0-33.2,6.4-44.1,19.2h-.6v-16.7h-39v188.3h20.3c10.3,0,18.7-8.4,18.7-18.7v-40.3h.6c10.4,12.5,24.7,18.8,42.9,18.8,9.6,0,19-1.8,27.9-5.4,8.3-3.4,15.9-8.5,22.1-15,6.4-6.9,11.3-14.9,14.5-23.8,3.6-9.8,5.3-20.2,5.2-30.6,0-8.4-1-16.7-3.3-24.8-2.1-7.5-5.3-14.5-9.5-21-4-6.1-9-11.5-14.6-16-5.7-4.5-12.1-8-19-10.3M486.3,159.7c-6.9,7.4-15.9,11.1-26.9,11.1-6.7.1-13.4-1.5-19.3-4.8-5.8-3.3-10.5-8.1-13.7-14-3.4-6.4-5.1-13.6-5-20.8,0-5.5.9-11,2.8-16.2,1.7-4.8,4.4-9.2,7.8-13,3.4-3.6,7.5-6.5,12-8.5,4.8-2.1,10.1-3.2,15.3-3.1,10.1-.2,19.8,3.8,26.6,11.2,7.1,7.5,10.6,17.3,10.6,29.5,0,11.7-3.5,21.2-10.4,28.6h0ZM696.5,143.1c.7-2.4,1-7.1,1-14,.2-13.2-2.8-26.3-8.9-38-5.7-11-14.4-20.1-25.2-26.3-10.9-6.3-23.3-9.5-37.4-9.5-9.8,0-19.5,1.8-28.6,5.5-8.6,3.5-16.4,8.7-22.9,15.3-6.5,6.9-11.6,15-15,23.9-3.8,9.7-5.7,20-5.6,30.4,0,14.8,3.3,28,9.8,39.6,6.2,11.2,15.6,20.4,26.8,26.5,11.8,6.3,24.9,9.4,38.2,9.2,14,0,26.3-2.5,37-7.5,10.1-4.5,19-11.4,25.9-20l-12.9-12c-6.2-5.9-15.5-6.8-22.7-2.1-7.3,4.8-15.8,7.2-24.5,7-9.3-.1-17.3-2.6-23.8-7.6-6.6-5.1-11.3-12.3-13.3-20.4h102M606.8,96.2c6-4.4,13.3-6.7,20.7-6.5,8.2,0,15,2.2,20.4,6.7,5.4,4.5,9,10.7,11,18.7h-64.2c2.2-8.3,6.2-14.6,12-18.9M865.4,57.8h-39v16.4h-.6c-10.9-12.6-25.2-18.9-42.9-18.9-9.3,0-18.6,1.9-27.1,5.7-8.3,3.6-15.7,8.9-21.8,15.6-6.3,7-11.1,15.1-14.3,24-7,19.7-7,41.3,0,61,3.2,8.8,8.1,16.9,14.5,23.7,6.2,6.5,13.8,11.6,22.1,15,8.8,3.6,18.3,5.5,27.8,5.4,18.6,0,33.1-6.7,43.5-20.1h.7c0,9.7,7.8,17.6,17.5,17.7,0,0,0,0,.1,0h19.4V57.8h0ZM817.4,159.8h0c-6.8,7.3-16.3,11.3-26.2,11.1-11,0-19.9-3.7-26.8-11.1-6.9-7.4-10.4-16.9-10.4-28.6,0-12.2,3.6-22,10.7-29.5,6.9-7.4,16.6-11.4,26.7-11.2,10.1-.2,19.7,4,26.3,11.6,7,7.7,10.4,17.3,10.4,29.1s-3.5,21.2-10.6,28.6h0ZM926.1,196.3c11.8,6.4,25,9.6,38.4,9.4,12.9.2,25.7-2.3,37.6-7.3,11.1-4.8,20-11.1,26.7-18.9l-15-13.2c-5.9-5.4-14.7-6.3-21.6-2.3-7.2,4.4-15.5,6.7-24,6.5-11.6,0-20.9-3.7-28.2-11.2-7.2-7.5-10.8-17.2-10.8-29.1,0-5.5.9-11,2.8-16.1,1.7-4.7,4.4-9,7.8-12.7,3.5-3.6,7.7-6.4,12.3-8.2,5-2,10.4-3.1,15.8-3,13.1-.3,25.6,5.5,33.9,15.6l26.3-22.7c-7.2-9.1-16.6-16.2-27.3-20.7-10.9-4.8-22.6-7.2-34.5-7.2-14.8,0-28.1,3.1-39.7,9.5-11.4,6.1-20.9,15.3-27.2,26.6-6.5,11.6-9.7,24.6-9.7,39.3,0,14.6,3.2,27.7,9.7,39.1,6.2,11.2,15.5,20.4,26.7,26.6M1158.6,58.6h0c-15.7-4.9-32.7-4.3-48,1.8-8,3.4-15.2,8.5-21,15h-.6V18.7C1089,8.4,1080.6,0,1070.3,0s0,0,0,0h-20.3v203.3h39v-73.8c0-12.8,3-22.5,9-29.2s14.3-10,25-10c9.7,0,16.9,2.7,21.5,8,4.6,5.3,6.9,14.4,6.9,27.3v77.7h39.1v-87.5c.2-9.5-1.1-19-3.9-28.2-3.9-13.7-14.4-24.6-28-29.1h0Z"/>
</svg>